<svg width="30" height="31" viewBox="0 0 30 31" fill="none" xmlns="http://www.w3.org/2000/svg">
<g clip-path="url(#clip0_102_562)">
<path fill-rule="evenodd" clip-rule="evenodd" d="M0.48584 15.4928C0.48584 22.7686 5.77017 28.8188 12.6814 30.0457V19.4758H9.02271V15.411H12.6814V12.1585C12.6814 8.49983 15.0388 6.46805 18.373 6.46805C19.4292 6.46805 20.5682 6.63026 21.6244 6.79246V10.5328H19.7548C17.9657 10.5328 17.5596 11.4268 17.5596 12.5658V15.411H21.4622L20.8121 19.4758H17.5596V30.0457C24.4708 28.8188 29.7551 22.7698 29.7551 15.4928C29.7551 7.39857 23.1695 0.776398 15.1205 0.776398C7.07143 0.776398 0.48584 7.39857 0.48584 15.4928Z" fill="#3D445C"/>
</g>
<defs>
<clipPath id="clip0_102_562">
<rect width="29.2693" height="29.2693" fill="white" transform="translate(0.48584 0.776398)"/>
</clipPath>
</defs>
</svg>
