<svg width="30" height="31" viewBox="0 0 17 17" fill="none" xmlns="http://www.w3.org/2000/svg">
<g clip-path="url(#clip0_115_564)">
<path d="M8.96481 0.853394C4.7085 0.853394 1.25818 4.30372 1.25818 8.56002C1.25818 12.8163 4.7085 16.2667 8.96481 16.2667C13.2211 16.2667 16.6714 12.8163 16.6714 8.56002C16.6714 4.30372 13.2211 0.853394 8.96481 0.853394ZM7.07829 11.7543H5.5177V6.73211H7.07829V11.7543ZM6.28836 6.11558C5.79546 6.11558 5.47676 5.76637 5.47676 5.33448C5.47676 4.89375 5.80509 4.55498 6.30843 4.55498C6.81177 4.55498 7.12003 4.89375 7.12967 5.33448C7.12967 5.76637 6.81177 6.11558 6.28836 6.11558ZM12.778 11.7543H11.2174V8.97104C11.2174 8.32321 10.991 7.88329 10.4267 7.88329C9.99557 7.88329 9.73949 8.18112 9.6263 8.46771C9.58455 8.56966 9.57411 8.71416 9.57411 8.85785V11.7535H8.01272V8.33364C8.01272 7.70668 7.99265 7.18246 7.97178 6.7313H9.32766L9.39911 7.42892H9.43042C9.63593 7.10138 10.1393 6.61811 10.9814 6.61811C12.0081 6.61811 12.778 7.30609 12.778 8.7848V11.7543V11.7543Z" fill="#3D445C"/>
</g>
<defs>
<clipPath id="clip0_115_564">
<rect width="29.2693" height="29.2693" fill="white" transform="translate(0.48584 0.776398)"/>
</clipPath>
</defs>
</svg>
