<svg width="30" height="31" viewBox="0 0 17 17" fill="none" xmlns="http://www.w3.org/2000/svg">
<g clip-path="url(#clip0_115_566)">
<path d="M8.04806 0.853394C3.79175 0.853394 0.341431 4.30372 0.341431 8.56002C0.341431 12.8163 3.79175 16.2667 8.04806 16.2667C12.3044 16.2667 15.7547 12.8163 15.7547 8.56002C15.7547 4.30372 12.3044 0.853394 8.04806 0.853394ZM11.1829 7.16641C11.1861 7.23224 11.1869 7.29806 11.1869 7.36229C11.1869 9.36922 9.66083 11.682 6.86879 11.682C6.04377 11.6834 5.23592 11.4464 4.54235 10.9997C4.66035 11.0141 4.78157 11.0197 4.9044 11.0197C5.61566 11.0197 6.26992 10.7781 6.78931 10.3703C6.47279 10.3641 6.16609 10.2593 5.91197 10.0705C5.65784 9.88166 5.46895 9.61829 5.37161 9.31704C5.59892 9.36026 5.83309 9.3512 6.05638 9.29055C5.71283 9.22108 5.40388 9.03493 5.18192 8.76366C4.95996 8.49239 4.83866 8.15271 4.83857 7.80221V7.78374C5.04328 7.89693 5.27769 7.96597 5.52655 7.974C5.20447 7.7596 4.97648 7.43026 4.88918 7.05332C4.80189 6.67639 4.86189 6.28035 5.05693 5.94619C5.43821 6.41501 5.91369 6.79853 6.4526 7.07193C6.99151 7.34533 7.58183 7.5025 8.18534 7.53328C8.10861 7.2076 8.14163 6.86569 8.27927 6.56072C8.4169 6.25574 8.65144 6.00479 8.94642 5.84686C9.2414 5.68893 9.58029 5.63289 9.91041 5.68744C10.2405 5.74198 10.5434 5.90407 10.7719 6.14849C11.1116 6.08128 11.4374 5.95667 11.7352 5.78002C11.622 6.13174 11.3849 6.43041 11.0681 6.62052C11.369 6.58428 11.6628 6.50338 11.9399 6.38049C11.7364 6.68546 11.48 6.95162 11.1829 7.16641V7.16641Z" fill="#3D445C"/>
</g>
<defs>
<clipPath id="clip0_115_566">
<rect width="16.0555" height="16.0555" fill="white" transform="translate(0.0202637 0.532288)"/>
</clipPath>
</defs>
</svg>
